<?xml version="1.0" encoding="UTF-8"?>
<!DOCTYPE svg PUBLIC "-//W3C//DTD SVG 1.1//EN" "http://www.w3.org/Graphics/SVG/1.1/DTD/svg11.dtd">
<svg xmlns="http://www.w3.org/2000/svg" version="1.1" width="500px" height="500px" style="shape-rendering:geometricPrecision; text-rendering:geometricPrecision; image-rendering:optimizeQuality; fill-rule:evenodd; clip-rule:evenodd" xmlns:xlink="http://www.w3.org/1999/xlink">
<g><path style="opacity:1" fill="#0ecd7e" d="M 107.5,139.5 C 108.59,140.857 109.924,141.857 111.5,142.5C 110.4,143.605 109.733,144.938 109.5,146.5C 109.672,147.492 109.338,148.158 108.5,148.5C 106.833,147.167 105.167,147.167 103.5,148.5C 102.662,148.158 102.328,147.492 102.5,146.5C 102.267,144.938 101.6,143.605 100.5,142.5C 102.076,141.857 103.41,140.857 104.5,139.5C 105.5,135.5 106.5,135.5 107.5,139.5 Z"/></g>
<g><path style="opacity:1" fill="#087649" d="M 104.5,139.5 C 103.41,140.857 102.076,141.857 100.5,142.5C 99.2267,141.923 99.2267,141.257 100.5,140.5C 101.736,139.754 103.07,139.421 104.5,139.5 Z"/></g>
<g><path style="opacity:1" fill="#087749" d="M 107.5,139.5 C 108.93,139.421 110.264,139.754 111.5,140.5C 112.773,141.257 112.773,141.923 111.5,142.5C 109.924,141.857 108.59,140.857 107.5,139.5 Z"/></g>
<g><path style="opacity:1" fill="#0dae6c" d="M 91.5,141.5 C 93.216,143.208 95.216,144.542 97.5,145.5C 96.9588,147.535 96.2922,149.535 95.5,151.5C 93.694,150.141 92.194,150.475 91,152.5C 90.9953,149.771 89.8287,147.771 87.5,146.5C 89.6114,145.395 90.9447,143.729 91.5,141.5 Z"/></g>
<g><path style="opacity:1" fill="#0daf6c" d="M 119.5,141.5 C 120.785,143.452 122.451,145.118 124.5,146.5C 122.171,147.771 121.005,149.771 121,152.5C 119.806,150.475 118.306,150.141 116.5,151.5C 115.708,149.535 115.041,147.535 114.5,145.5C 116.772,144.866 118.439,143.532 119.5,141.5 Z"/></g>
<g><path style="opacity:1" fill="#04311f" d="M 102.5,146.5 C 102.328,147.492 102.662,148.158 103.5,148.5C 102.698,149.885 102.031,149.718 101.5,148C 101.57,147.235 101.903,146.735 102.5,146.5 Z"/></g>
<g><path style="opacity:1" fill="#043823" d="M 109.5,146.5 C 110.776,147.386 110.776,148.386 109.5,149.5C 108.893,149.376 108.56,149.043 108.5,148.5C 109.338,148.158 109.672,147.492 109.5,146.5 Z"/></g>
<g><path style="opacity:1" fill="#0ed181" d="M 175.5,301.5 C 174.833,298.5 174.167,295.5 173.5,292.5C 173.896,276.203 171.062,260.536 165,245.5C 164.097,244.299 162.931,243.465 161.5,243C 158.167,242.333 154.833,242.333 151.5,243C 136.832,245.667 122.165,248.334 107.5,251C 100.167,251.667 92.8333,251.667 85.5,251C 81.9101,250.689 78.5767,249.856 75.5,248.5C 73.4855,247.076 71.1522,246.41 68.5,246.5C 67.1501,245.176 67.3167,244.176 69,243.5C 77.5834,245.563 86.0834,245.896 94.5,244.5C 94.8333,244.5 95.1667,244.5 95.5,244.5C 100.552,244.55 105.552,244.05 110.5,243C 111.056,242.617 111.389,242.117 111.5,241.5C 126.193,236.369 141.359,232.703 157,230.5C 166.432,230.378 172.766,234.711 176,243.5C 177.325,248.401 177.825,253.401 177.5,258.5C 214.758,245.308 225.925,220.308 211,183.5C 208.331,180 205.498,176.667 202.5,173.5C 202.027,172.094 201.027,171.427 199.5,171.5C 198.391,171.443 197.391,171.11 196.5,170.5C 195.01,168.72 193.01,168.054 190.5,168.5C 171.252,166.978 153.252,171.144 136.5,181C 122.493,190.675 107.826,199.341 92.5,207C 88.6928,208.881 84.6928,210.047 80.5,210.5C 74.8333,210.5 69.1667,210.5 63.5,210.5C 53.0331,208.098 45.3665,202.098 40.5,192.5C 40.3505,191.448 40.5172,190.448 41,189.5C 42.0113,190.337 43.1779,190.67 44.5,190.5C 50.0043,194.252 56.0043,196.918 62.5,198.5C 63.8714,199.787 65.7047,200.453 68,200.5C 71.1498,200.64 73.9831,199.973 76.5,198.5C 84.8374,195.163 92.8374,190.996 100.5,186C 116.296,173.432 133.629,163.432 152.5,156C 169.547,150.152 186.547,150.152 203.5,156C 217.452,163.048 226.285,174.214 230,189.5C 237.911,226.179 224.744,252.012 190.5,267C 186.284,268.684 181.951,269.851 177.5,270.5C 177.435,280.877 176.769,291.211 175.5,301.5 Z"/></g>
<g><path style="opacity:1" fill="#0b9b60" d="M 54.5,157.5 C 50.0118,157.101 45.5118,156.767 41,156.5C 35.3003,156.571 29.8003,157.571 24.5,159.5C 26.8577,157.871 29.5243,156.705 32.5,156C 38.5,155.333 44.5,155.333 50.5,156C 52.0581,156.21 53.3915,156.71 54.5,157.5 Z"/></g>
<g><path style="opacity:1" fill="#0ed080" d="M 54.5,157.5 C 54.8333,157.5 55.1667,157.5 55.5,157.5C 57.3204,159.448 59.6538,160.448 62.5,160.5C 69.0856,162.792 75.0856,166.126 80.5,170.5C 79.8166,172.176 78.4832,172.843 76.5,172.5C 74.4214,172.029 72.4214,171.363 70.5,170.5C 68.5615,168.837 66.2282,168.171 63.5,168.5C 61.0504,168.702 58.717,168.369 56.5,167.5C 54.3587,166.837 52.0254,166.503 49.5,166.5C 45.8589,166.315 42.5256,166.981 39.5,168.5C 21.2254,174.327 12.2254,186.994 12.5,206.5C 12.9551,227.413 21.7885,243.746 39,255.5C 38.1722,247.524 37.0056,239.524 35.5,231.5C 35.3284,230.508 35.6618,229.842 36.5,229.5C 43.1426,243.721 47.4759,258.721 49.5,274.5C 53.4432,273.514 57.4432,272.848 61.5,272.5C 71.0219,271.577 80.3553,270.243 89.5,268.5C 102.409,267.777 115.075,269.111 127.5,272.5C 130.403,274.648 133.736,276.148 137.5,277C 134.525,277.044 131.525,276.877 128.5,276.5C 116.23,274.864 103.897,274.197 91.5,274.5C 87.2095,274.198 83.2095,274.864 79.5,276.5C 73.5941,278.142 67.5941,279.476 61.5,280.5C 58.8478,280.41 56.5145,281.076 54.5,282.5C 52.9087,283.219 51.4087,284.219 50,285.5C 49.1747,289.211 49.3414,292.878 50.5,296.5C 74.7141,288.208 99.3807,286.541 124.5,291.5C 124.611,292.117 124.944,292.617 125.5,293C 131.958,294.198 138.291,295.864 144.5,298C 142.527,298.495 140.527,298.662 138.5,298.5C 127.516,297.596 116.516,296.93 105.5,296.5C 98.2618,296.18 91.2618,296.847 84.5,298.5C 69.6128,301.848 54.9461,306.348 40.5,312C 38.8333,312.667 37.1667,312.667 35.5,312C 38.9235,297.355 40.2568,282.522 39.5,267.5C 38.2613,267.058 37.2613,266.391 36.5,265.5C 36.0269,264.094 35.0269,263.427 33.5,263.5C 33.0269,262.094 32.0269,261.427 30.5,261.5C 13.1109,250.055 2.77758,234.055 -0.5,213.5C -0.5,207.167 -0.5,200.833 -0.5,194.5C 2.03312,178.642 10.3665,166.975 24.5,159.5C 29.8003,157.571 35.3003,156.571 41,156.5C 45.5118,156.767 50.0118,157.101 54.5,157.5 Z"/></g>
<g><path style="opacity:1" fill="#097d4d" d="M 55.5,157.5 C 58.1573,157.935 60.4907,158.935 62.5,160.5C 59.6538,160.448 57.3204,159.448 55.5,157.5 Z"/></g>
<g><path style="opacity:1" fill="#054c2f" d="M 56.5,167.5 C 50.7969,167.375 45.1302,167.708 39.5,168.5C 42.5256,166.981 45.8589,166.315 49.5,166.5C 52.0254,166.503 54.3587,166.837 56.5,167.5 Z"/></g>
<g><path style="opacity:1" fill="#075d39" d="M 63.5,168.5 C 66.2282,168.171 68.5615,168.837 70.5,170.5C 67.9327,170.279 65.5994,169.612 63.5,168.5 Z"/></g>
<g><path style="opacity:1" fill="#086941" d="M 190.5,168.5 C 193.01,168.054 195.01,168.72 196.5,170.5C 194.302,170.125 192.302,169.458 190.5,168.5 Z"/></g>
<g><path style="opacity:1" fill="#085f3b" d="M 199.5,171.5 C 201.027,171.427 202.027,172.094 202.5,173.5C 200.973,173.573 199.973,172.906 199.5,171.5 Z"/></g>
<g><path style="opacity:1" fill="#0a8452" d="M 80.5,170.5 C 83.8153,172.289 85.6486,174.955 86,178.5C 83.1574,175.837 79.9907,173.837 76.5,172.5C 78.4832,172.843 79.8166,172.176 80.5,170.5 Z"/></g>
<g><path style="opacity:1" fill="#0a8f59" d="M 44.5,190.5 C 43.1779,190.67 42.0113,190.337 41,189.5C 40.5172,190.448 40.3505,191.448 40.5,192.5C 38.6013,190.747 37.9347,188.747 38.5,186.5C 40.8132,187.5 42.8132,188.834 44.5,190.5 Z"/></g>
<g><path style="opacity:1" fill="#0a985e" d="M 62.5,198.5 C 67.1425,199.673 71.8091,199.673 76.5,198.5C 73.9831,199.973 71.1498,200.64 68,200.5C 65.7047,200.453 63.8714,199.787 62.5,198.5 Z"/></g>
<g><path style="opacity:1" fill="#08764a" d="M 63.5,210.5 C 69.1667,210.5 74.8333,210.5 80.5,210.5C 77.8289,211.298 74.9956,211.965 72,212.5C 69.0044,211.965 66.1711,211.298 63.5,210.5 Z"/></g>
<g><path style="opacity:1" fill="#0dbb73" d="M 273.5,207.5 C 282.022,206.759 289.188,209.426 295,215.5C 298.025,230.191 292.191,239.691 277.5,244C 271.903,245.091 266.57,244.424 261.5,242C 256.834,237.994 256.334,233.494 260,228.5C 261.5,227 263,225.5 264.5,224C 265.332,223.312 265.998,223.479 266.5,224.5C 264.476,226.69 262.643,229.023 261,231.5C 260.12,238.457 263.287,241.791 270.5,241.5C 286.141,239.391 292.641,230.724 290,215.5C 284.689,210.854 278.523,209.354 271.5,211C 250.383,216.115 236.217,228.948 229,249.5C 226.38,265.259 233.047,273.593 249,274.5C 262.812,273.521 274.312,267.854 283.5,257.5C 284.583,258.365 284.749,259.365 284,260.5C 268.998,276.398 251.165,281.231 230.5,275C 222.482,266.962 220.315,257.462 224,246.5C 233.316,224.348 249.816,211.348 273.5,207.5 Z"/></g>
<g><path style="opacity:1" fill="#022013" d="M 32.5,222.5 C 31.8333,221.167 31.8333,221.167 32.5,222.5 Z"/></g>
<g><path style="opacity:1" fill="#097e4e" d="M 32.5,222.5 C 34.588,224.336 35.9213,226.669 36.5,229.5C 35.6618,229.842 35.3284,230.508 35.5,231.5C 33.9281,228.785 32.9281,225.785 32.5,222.5 Z"/></g>
<g><path style="opacity:1" fill="#0cb771" d="M 344.5,229.5 C 346.655,229.372 348.655,229.872 350.5,231C 351.426,235.887 349.426,237.387 344.5,235.5C 342.262,233.647 342.262,231.647 344.5,229.5 Z"/></g>
<g><path style="opacity:1" fill="#032d1b" d="M 50.5,235.5 C 49.8333,234.167 49.8333,234.167 50.5,235.5 Z"/></g>
<g><path style="opacity:1" fill="#064a2e" d="M 418.5,236.5 C 419.995,236.989 421.329,237.655 422.5,238.5C 420.517,238.843 419.183,238.176 418.5,236.5 Z"/></g>
<g><path style="opacity:1" fill="#0dc177" d="M 457.5,260.5 C 459.371,260.141 460.871,259.141 462,257.5C 462.399,257.728 462.565,258.062 462.5,258.5C 459.269,263.567 454.769,266.901 449,268.5C 447.105,268.385 445.438,267.718 444,266.5C 443.667,263.833 443.333,261.167 443,258.5C 439.114,263.724 434.114,267.39 428,269.5C 426.527,269.097 425.194,268.43 424,267.5C 423.341,264.112 423.508,260.779 424.5,257.5C 426.085,256.998 426.585,255.998 426,254.5C 424.955,255.373 424.122,256.373 423.5,257.5C 422.923,258.773 422.257,258.773 421.5,257.5C 426.266,250.564 431.6,244.064 437.5,238C 440.94,235.805 442.774,236.639 443,240.5C 436.077,247.342 430.91,255.342 427.5,264.5C 427.808,265.308 428.308,265.975 429,266.5C 438.323,260.176 445.989,252.176 452,242.5C 454.143,239.675 456.81,237.675 460,236.5C 462.942,236.437 463.942,237.77 463,240.5C 456.777,247.115 451.944,254.615 448.5,263C 448.63,264.059 449.13,264.892 450,265.5C 452.787,264.195 455.287,262.528 457.5,260.5 Z"/></g>
<g><path style="opacity:1" fill="#0dc177" d="M 418.5,236.5 C 419.183,238.176 420.517,238.843 422.5,238.5C 423.598,239.601 423.765,240.934 423,242.5C 416.841,254.822 410.174,266.822 403,278.5C 398.991,284.189 393.657,287.856 387,289.5C 381.647,288.019 379.48,284.686 380.5,279.5C 382.932,285.942 386.932,287.109 392.5,283C 398.899,276.434 403.899,268.934 407.5,260.5C 408.848,259.473 409.348,258.14 409,256.5C 407.955,257.373 407.122,258.373 406.5,259.5C 402.575,265.314 397.242,268.147 390.5,268C 387.732,266.238 386.232,263.738 386,260.5C 382.049,265.887 376.882,268.72 370.5,269C 368.477,265.817 367.977,262.317 369,258.5C 371.082,253.692 373.082,249.025 375,244.5C 367.605,252.059 360.771,260.059 354.5,268.5C 352.994,269.747 351.494,269.747 350,268.5C 349.366,265.445 349.532,262.445 350.5,259.5C 351.848,258.473 352.348,257.14 352,255.5C 350.955,256.373 350.122,257.373 349.5,258.5C 344.282,265.929 337.282,270.095 328.5,271C 326.137,270.411 325.137,268.911 325.5,266.5C 325.785,264.712 325.452,263.045 324.5,261.5C 323.893,261.624 323.56,261.957 323.5,262.5C 320.501,265.758 317.001,268.425 313,270.5C 309.033,269.534 306.866,267.034 306.5,263C 307.876,257.413 310.21,252.246 313.5,247.5C 313.167,247.167 312.833,246.833 312.5,246.5C 302.644,252.856 294.644,261.023 288.5,271C 286.393,271.854 285.059,271.188 284.5,269C 291.775,254.278 299.942,240.111 309,226.5C 311.039,224.126 313.372,222.126 316,220.5C 317.867,222.756 317.867,225.09 316,227.5C 309.674,235.484 303.841,243.817 298.5,252.5C 298.667,252.833 298.833,253.167 299,253.5C 304.886,248.613 311.053,244.113 317.5,240C 319.447,239.009 321.447,238.675 323.5,239C 324.554,240.388 324.72,241.888 324,243.5C 321,247.833 318,252.167 315,256.5C 312.994,259.536 312.16,262.869 312.5,266.5C 316.024,266.071 319.024,264.571 321.5,262C 326.442,257.286 330.275,251.786 333,245.5C 334.818,243 337.152,241.334 340,240.5C 341.662,240.388 342.829,241.054 343.5,242.5C 339.86,247.973 336.027,253.306 332,258.5C 329.994,261.536 329.16,264.869 329.5,268.5C 333.604,268.116 337.271,266.616 340.5,264C 348.205,255.963 355.539,247.63 362.5,239C 363.793,238.51 365.127,238.343 366.5,238.5C 365.428,243.31 363.262,247.643 360,251.5C 358.699,253.402 358.032,255.402 358,257.5C 364.946,249.548 372.779,242.714 381.5,237C 385.667,235.833 387.167,237.333 386,241.5C 381.216,246.956 377.216,252.956 374,259.5C 373.505,261.473 373.338,263.473 373.5,265.5C 377.203,265.138 380.203,263.471 382.5,260.5C 389.006,252.496 396.006,244.996 403.5,238C 406.737,236.032 410.237,234.865 414,234.5C 416.008,234.307 417.508,234.974 418.5,236.5 Z M 413.5,238.5 C 414.978,238.238 416.311,238.571 417.5,239.5C 412.497,248.661 406.163,256.828 398.5,264C 396.323,265.202 393.989,265.702 391.5,265.5C 392.654,257.14 396.654,250.306 403.5,245C 406.761,242.548 410.094,240.381 413.5,238.5 Z"/></g>
<g><path style="opacity:1" fill="#0b9c61" d="M 111.5,241.5 C 111.389,242.117 111.056,242.617 110.5,243C 105.552,244.05 100.552,244.55 95.5,244.5C 100.662,243.269 105.996,242.269 111.5,241.5 Z"/></g>
<g><path style="opacity:1" fill="#0b9c60" d="M 50.5,235.5 C 64.3538,242.295 79.0205,245.295 94.5,244.5C 86.0834,245.896 77.5834,245.563 69,243.5C 67.3167,244.176 67.1501,245.176 68.5,246.5C 61.4251,244.31 55.4251,240.643 50.5,235.5 Z"/></g>
<g><path style="opacity:1" fill="#07643e" d="M 68.5,246.5 C 71.1522,246.41 73.4855,247.076 75.5,248.5C 72.8478,248.59 70.5145,247.924 68.5,246.5 Z"/></g>
<g><path style="opacity:1" fill="#0b965d" d="M 462.5,258.5 C 462.565,258.062 462.399,257.728 462,257.5C 460.871,259.141 459.371,260.141 457.5,260.5C 460.479,256.854 463.812,253.521 467.5,250.5C 468.583,251.365 468.749,252.365 468,253.5C 466.296,255.373 464.463,257.04 462.5,258.5 Z"/></g>
<g><path style="opacity:1" fill="#073622" d="M 424.5,257.5 C 424.167,257.5 423.833,257.5 423.5,257.5C 424.122,256.373 424.955,255.373 426,254.5C 426.585,255.998 426.085,256.998 424.5,257.5 Z"/></g>
<g><path style="opacity:1" fill="#071b12" d="M 350.5,259.5 C 350.5,258.833 350.167,258.5 349.5,258.5C 350.122,257.373 350.955,256.373 352,255.5C 352.348,257.14 351.848,258.473 350.5,259.5 Z"/></g>
<g><path style="opacity:1" fill="#081e14" d="M 407.5,260.5 C 407.5,259.833 407.167,259.5 406.5,259.5C 407.122,258.373 407.955,257.373 409,256.5C 409.348,258.14 408.848,259.473 407.5,260.5 Z"/></g>
<g><path style="opacity:1" fill="#07663f" d="M 30.5,261.5 C 32.0269,261.427 33.0269,262.094 33.5,263.5C 31.9731,263.573 30.9731,262.906 30.5,261.5 Z"/></g>
<g><path style="opacity:1" fill="#075a38" d="M 33.5,263.5 C 35.0269,263.427 36.0269,264.094 36.5,265.5C 34.9731,265.573 33.9731,264.906 33.5,263.5 Z"/></g>
<g><path style="opacity:1" fill="#083c26" d="M 323.5,262.5 C 323.56,261.957 323.893,261.624 324.5,261.5C 325.452,263.045 325.785,264.712 325.5,266.5C 324.833,265.167 324.167,263.833 323.5,262.5 Z"/></g>
<g><path style="opacity:1" fill="#0ba566" d="M 89.5,268.5 C 80.3553,270.243 71.0219,271.577 61.5,272.5C 70.5327,269.971 79.8661,268.638 89.5,268.5 Z"/></g>
<g><path style="opacity:1" fill="#054128" d="M 91.5,274.5 C 87.7051,275.617 83.7051,276.283 79.5,276.5C 83.2095,274.864 87.2095,274.198 91.5,274.5 Z"/></g>
<g><path style="opacity:1" fill="#0a8653" d="M 127.5,272.5 C 138.264,275.547 148.598,279.714 158.5,285C 158,285.5 157.5,286 157,286.5C 147.725,282.243 138.225,278.91 128.5,276.5C 131.525,276.877 134.525,277.044 137.5,277C 133.736,276.148 130.403,274.648 127.5,272.5 Z"/></g>
<g><path style="opacity:1" fill="#053d26" d="M 61.5,280.5 C 59.4855,281.924 57.1522,282.59 54.5,282.5C 56.5145,281.076 58.8478,280.41 61.5,280.5 Z"/></g>
<g><path style="opacity:1" fill="#097d4d" d="M 124.5,291.5 C 135.695,293.456 146.362,296.789 156.5,301.5C 155.85,301.804 155.183,302.137 154.5,302.5C 149.076,301.021 143.743,299.688 138.5,298.5C 140.527,298.662 142.527,298.495 144.5,298C 138.291,295.864 131.958,294.198 125.5,293C 124.944,292.617 124.611,292.117 124.5,291.5 Z"/></g>
<g><path style="opacity:1" fill="#076a41" d="M 173.5,292.5 C 174.167,295.5 174.833,298.5 175.5,301.5C 175.769,303.429 175.269,305.095 174,306.5C 173.501,301.845 173.334,297.179 173.5,292.5 Z"/></g>
<g><path style="opacity:1" fill="#033621" d="M 352.5,295.5 C 353.434,296.568 353.768,297.901 353.5,299.5C 355.099,299.232 356.432,299.566 357.5,300.5C 355.833,300.5 354.167,300.5 352.5,300.5C 352.5,298.833 352.5,297.167 352.5,295.5 Z"/></g>
<g><path style="opacity:1" fill="#054b2e" d="M 105.5,296.5 C 98.6835,297.565 91.6835,298.232 84.5,298.5C 91.2618,296.847 98.2618,296.18 105.5,296.5 Z"/></g>
<g><path style="opacity:1" fill="#0a8d57" d="M 305.5,295.5 C 308.765,295.299 311.431,296.466 313.5,299C 311.323,299.345 309.323,298.845 307.5,297.5C 302.147,300.513 302.313,303.513 308,306.5C 309.71,305.055 311.544,304.222 313.5,304C 310.405,308.867 306.905,309.367 303,305.5C 300.701,301.362 301.535,298.028 305.5,295.5 Z"/></g>
<g><path style="opacity:1" fill="#0b995f" d="M 319.5,299.5 C 324.515,300.367 325.849,302.867 323.5,307C 316.17,307.486 314.837,304.986 319.5,299.5 Z M 319.5,301.5 C 324.992,303.717 324.658,305.051 318.5,305.5C 318.433,304.041 318.766,302.708 319.5,301.5 Z"/></g>
<g><path style="opacity:1" fill="#0a8f58" d="M 365.5,299.5 C 371.488,299.664 372.821,302.164 369.5,307C 363.202,307.495 361.868,304.995 365.5,299.5 Z M 365.5,301.5 C 368.5,301.167 369.833,302.5 369.5,305.5C 368.167,305.5 366.833,305.5 365.5,305.5C 365.5,304.167 365.5,302.833 365.5,301.5 Z"/></g>
<g><path style="opacity:1" fill="#0a8f58" d="M 377.5,299.5 C 383.488,299.664 384.821,302.164 381.5,307C 375.202,307.495 373.868,304.995 377.5,299.5 Z M 377.5,301.5 C 380.5,301.167 381.833,302.5 381.5,305.5C 380.167,305.5 378.833,305.5 377.5,305.5C 377.5,304.167 377.5,302.833 377.5,301.5 Z"/></g>
<g><path style="opacity:1" fill="#04321e" d="M 156.5,301.5 C 157.833,302.167 157.833,302.167 156.5,301.5 Z"/></g>
<g><path style="opacity:1" fill="#098854" d="M 387.5,294.5 C 389.197,296.305 390.03,298.639 390,301.5C 393.717,299.055 394.217,299.721 391.5,303.5C 394.512,307.563 394.012,308.229 390,305.5C 389.692,306.308 389.192,306.975 388.5,307.5C 387.508,303.217 387.174,298.884 387.5,294.5 Z"/></g>
<g><path style="opacity:1" fill="#0a9d61" d="M 331.5,299.5 C 336.515,300.367 337.849,302.867 335.5,307C 328.17,307.486 326.837,304.986 331.5,299.5 Z M 331.5,301.5 C 336.049,301.932 336.549,303.599 333,306.5C 330.491,305.347 329.991,303.68 331.5,301.5 Z"/></g>
<g><path style="opacity:1" fill="#0b975d" d="M 344.5,306.5 C 343.012,303.814 342.345,304.147 342.5,307.5C 341.353,303.354 341.186,299.02 342,294.5C 343.194,296.623 343.86,298.957 344,301.5C 344.535,299.729 345.369,299.396 346.5,300.5C 343.809,302.998 344.142,305.165 347.5,307C 346.251,307.74 345.251,307.573 344.5,306.5 Z"/></g>
<g><path style="opacity:1" fill="#03321f" d="M 344.5,306.5 C 343.833,306.833 343.167,307.167 342.5,307.5C 342.345,304.147 343.012,303.814 344.5,306.5 Z"/></g>
<g><path style="opacity:1" fill="#0baa69" d="M 352.5,295.5 C 352.5,297.167 352.5,298.833 352.5,300.5C 354.167,300.5 355.833,300.5 357.5,300.5C 360.037,302.632 360.037,304.799 357.5,307C 355.527,307.495 353.527,307.662 351.5,307.5C 351.165,302.722 351.498,298.722 352.5,295.5 Z M 353.5,301.5 C 357.961,302.048 358.461,303.715 355,306.5C 353.731,305.095 353.231,303.429 353.5,301.5 Z"/></g>
</svg>
